<svg width="167" height="18" viewBox="0 0 167 18" fill="none" xmlns="http://www.w3.org/2000/svg">
<g clip-path="url(#clip0)">
<path fill-rule="evenodd" clip-rule="evenodd" d="M21.6403 9.20477C21.6403 8.56658 21.583 7.95294 21.4766 7.36385H13.0002V10.8452H17.8439C17.6352 11.9702 17.0011 12.9234 16.048 13.5616V15.8198H18.9566C20.6585 14.253 21.6403 11.9457 21.6403 9.20477Z" fill="#4285F4"/>
<path fill-rule="evenodd" clip-rule="evenodd" d="M13 18.0001C15.43 18.0001 17.4673 17.1942 18.9564 15.8196L16.0477 13.5614C15.2418 14.1014 14.2109 14.4205 13 14.4205C10.6559 14.4205 8.67175 12.8373 7.96402 10.71H4.95718V13.0418C6.4381 15.9832 9.48176 18.0001 13 18.0001Z" fill="#34A853"/>
<path fill-rule="evenodd" clip-rule="evenodd" d="M7.96412 10.7099C7.78412 10.1699 7.68185 9.59305 7.68185 8.99986C7.68185 8.40667 7.78412 7.82985 7.96412 7.28985V4.95801H4.95728C4.34773 6.17302 4 7.54757 4 8.99986C4 10.4521 4.34773 11.8267 4.95728 13.0417L7.96412 10.7099Z" fill="#FBBC05"/>
<path fill-rule="evenodd" clip-rule="evenodd" d="M13 3.57958C14.3213 3.57958 15.5077 4.03367 16.4405 4.9255L19.0218 2.34411C17.4632 0.891826 15.4259 0 13 0C9.48176 0 6.4381 2.01684 4.95718 4.95822L7.96402 7.29006C8.67175 5.16277 10.6559 3.57958 13 3.57958Z" fill="#EA4335"/>
<path d="M38.7412 12.0195H43.2598V13.4004H37.0117V3.44727H38.7412V12.0195ZM44.333 9.63379C44.333 8.90918 44.4766 8.25749 44.7637 7.67871C45.0508 7.09538 45.4541 6.64876 45.9736 6.33887C46.4932 6.02441 47.0902 5.86719 47.7646 5.86719C48.7627 5.86719 49.5716 6.18848 50.1914 6.83105C50.8158 7.47363 51.153 8.32585 51.2031 9.3877L51.21 9.77734C51.21 10.5065 51.0687 11.1582 50.7861 11.7324C50.5081 12.3066 50.1071 12.751 49.583 13.0654C49.0635 13.3799 48.4619 13.5371 47.7783 13.5371C46.7347 13.5371 45.8984 13.1908 45.2695 12.498C44.6452 11.8008 44.333 10.8734 44.333 9.71582V9.63379ZM45.9941 9.77734C45.9941 10.5384 46.1514 11.1354 46.4658 11.5684C46.7803 11.9967 47.2178 12.2109 47.7783 12.2109C48.3389 12.2109 48.7741 11.9922 49.084 11.5547C49.3984 11.1172 49.5557 10.4769 49.5557 9.63379C49.5557 8.88639 49.3939 8.29395 49.0703 7.85645C48.7513 7.41895 48.3161 7.2002 47.7646 7.2002C47.2223 7.2002 46.7917 7.41667 46.4727 7.84961C46.1536 8.27799 45.9941 8.92057 45.9941 9.77734ZM52.543 9.64746C52.543 8.49902 52.8118 7.58301 53.3496 6.89941C53.8919 6.21126 54.6097 5.86719 55.5029 5.86719C56.346 5.86719 57.0091 6.16113 57.4922 6.74902L57.5674 6.00391H59.0645V13.1748C59.0645 14.1455 58.7614 14.9111 58.1553 15.4717C57.5537 16.0322 56.7402 16.3125 55.7148 16.3125C55.1725 16.3125 54.6416 16.1986 54.1221 15.9707C53.6071 15.7474 53.2152 15.4535 52.9463 15.0889L53.7324 14.0908C54.2428 14.6969 54.8717 15 55.6191 15C56.1706 15 56.6058 14.8496 56.9248 14.5488C57.2438 14.2526 57.4033 13.8151 57.4033 13.2363V12.7373C56.9248 13.2705 56.2868 13.5371 55.4893 13.5371C54.6234 13.5371 53.9147 13.193 53.3633 12.5049C52.8164 11.8167 52.543 10.8643 52.543 9.64746ZM54.1973 9.79102C54.1973 10.5339 54.3477 11.1195 54.6484 11.5479C54.9538 11.9717 55.3753 12.1836 55.9131 12.1836C56.583 12.1836 57.0798 11.8965 57.4033 11.3223V8.06836C57.0889 7.50781 56.5967 7.22754 55.9268 7.22754C55.3799 7.22754 54.9538 7.44401 54.6484 7.87695C54.3477 8.3099 54.1973 8.94792 54.1973 9.79102ZM66.6865 13.4004H64.9639V3.44727H66.6865V13.4004ZM70.4121 6.00391L70.46 6.8584C71.0068 6.19759 71.7246 5.86719 72.6133 5.86719C74.1536 5.86719 74.9375 6.74902 74.9648 8.5127V13.4004H73.3037V8.6084C73.3037 8.139 73.2012 7.79264 72.9961 7.56934C72.7956 7.34147 72.4652 7.22754 72.0049 7.22754C71.335 7.22754 70.8359 7.5306 70.5078 8.13672V13.4004H68.8467V6.00391H70.4121ZM87.085 11.1104L88.2607 6.00391H89.8809L87.8643 13.4004H86.4971L84.9111 8.32129L83.3525 13.4004H81.9854L79.9619 6.00391H81.582L82.7783 11.0557L84.2959 6.00391H85.5469L87.085 11.1104ZM92.9775 13.4004H91.3164V6.00391H92.9775V13.4004ZM91.2139 4.08301C91.2139 3.8278 91.2936 3.61589 91.4531 3.44727C91.6172 3.27865 91.8496 3.19434 92.1504 3.19434C92.4512 3.19434 92.6836 3.27865 92.8477 3.44727C93.0117 3.61589 93.0938 3.8278 93.0938 4.08301C93.0938 4.33366 93.0117 4.54329 92.8477 4.71191C92.6836 4.87598 92.4512 4.95801 92.1504 4.95801C91.8496 4.95801 91.6172 4.87598 91.4531 4.71191C91.2936 4.54329 91.2139 4.33366 91.2139 4.08301ZM97.0928 4.20605V6.00391H98.3984V7.23438H97.0928V11.3633C97.0928 11.6458 97.1475 11.8509 97.2568 11.9785C97.3708 12.1016 97.5713 12.1631 97.8584 12.1631C98.0498 12.1631 98.2435 12.1403 98.4395 12.0947V13.3799C98.0612 13.4847 97.6966 13.5371 97.3457 13.5371C96.0697 13.5371 95.4316 12.833 95.4316 11.4248V7.23438H94.2148V6.00391H95.4316V4.20605H97.0928ZM101.529 6.81055C102.072 6.18164 102.757 5.86719 103.587 5.86719C105.164 5.86719 105.964 6.76725 105.986 8.56738V13.4004H104.325V8.62891C104.325 8.11849 104.214 7.75846 103.99 7.54883C103.771 7.33464 103.448 7.22754 103.02 7.22754C102.354 7.22754 101.857 7.52376 101.529 8.11621V13.4004H99.8682V2.90039H101.529V6.81055ZM119.385 12.1084C119.025 12.5778 118.526 12.9333 117.888 13.1748C117.25 13.4163 116.525 13.5371 115.714 13.5371C114.88 13.5371 114.142 13.348 113.499 12.9697C112.856 12.5915 112.36 12.0514 112.009 11.3496C111.662 10.6432 111.482 9.82064 111.469 8.88184V8.10254C111.469 6.59863 111.829 5.42513 112.549 4.58203C113.269 3.73438 114.274 3.31055 115.563 3.31055C116.671 3.31055 117.55 3.58398 118.202 4.13086C118.854 4.67773 119.246 5.46615 119.378 6.49609H117.683C117.491 5.29753 116.796 4.69824 115.598 4.69824C114.823 4.69824 114.233 4.97852 113.827 5.53906C113.426 6.09505 113.219 6.91309 113.205 7.99316V8.75879C113.205 9.83431 113.431 10.6706 113.882 11.2676C114.338 11.86 114.969 12.1562 115.775 12.1562C116.66 12.1562 117.288 11.9557 117.662 11.5547V9.60645H115.611V8.29395H119.385V12.1084ZM121.032 9.63379C121.032 8.90918 121.176 8.25749 121.463 7.67871C121.75 7.09538 122.153 6.64876 122.673 6.33887C123.192 6.02441 123.789 5.86719 124.464 5.86719C125.462 5.86719 126.271 6.18848 126.891 6.83105C127.515 7.47363 127.852 8.32585 127.902 9.3877L127.909 9.77734C127.909 10.5065 127.768 11.1582 127.485 11.7324C127.207 12.3066 126.806 12.751 126.282 13.0654C125.763 13.3799 125.161 13.5371 124.478 13.5371C123.434 13.5371 122.598 13.1908 121.969 12.498C121.344 11.8008 121.032 10.8734 121.032 9.71582V9.63379ZM122.693 9.77734C122.693 10.5384 122.851 11.1354 123.165 11.5684C123.479 11.9967 123.917 12.2109 124.478 12.2109C125.038 12.2109 125.473 11.9922 125.783 11.5547C126.098 11.1172 126.255 10.4769 126.255 9.63379C126.255 8.88639 126.093 8.29395 125.77 7.85645C125.451 7.41895 125.015 7.2002 124.464 7.2002C123.922 7.2002 123.491 7.41667 123.172 7.84961C122.853 8.27799 122.693 8.92057 122.693 9.77734ZM129.222 9.63379C129.222 8.90918 129.365 8.25749 129.652 7.67871C129.939 7.09538 130.343 6.64876 130.862 6.33887C131.382 6.02441 131.979 5.86719 132.653 5.86719C133.651 5.86719 134.46 6.18848 135.08 6.83105C135.704 7.47363 136.042 8.32585 136.092 9.3877L136.099 9.77734C136.099 10.5065 135.957 11.1582 135.675 11.7324C135.397 12.3066 134.996 12.751 134.472 13.0654C133.952 13.3799 133.351 13.5371 132.667 13.5371C131.623 13.5371 130.787 13.1908 130.158 12.498C129.534 11.8008 129.222 10.8734 129.222 9.71582V9.63379ZM130.883 9.77734C130.883 10.5384 131.04 11.1354 131.354 11.5684C131.669 11.9967 132.106 12.2109 132.667 12.2109C133.228 12.2109 133.663 11.9922 133.973 11.5547C134.287 11.1172 134.444 10.4769 134.444 9.63379C134.444 8.88639 134.283 8.29395 133.959 7.85645C133.64 7.41895 133.205 7.2002 132.653 7.2002C132.111 7.2002 131.68 7.41667 131.361 7.84961C131.042 8.27799 130.883 8.92057 130.883 9.77734ZM137.432 9.64746C137.432 8.49902 137.701 7.58301 138.238 6.89941C138.781 6.21126 139.498 5.86719 140.392 5.86719C141.235 5.86719 141.898 6.16113 142.381 6.74902L142.456 6.00391H143.953V13.1748C143.953 14.1455 143.65 14.9111 143.044 15.4717C142.442 16.0322 141.629 16.3125 140.604 16.3125C140.061 16.3125 139.53 16.1986 139.011 15.9707C138.496 15.7474 138.104 15.4535 137.835 15.0889L138.621 14.0908C139.132 14.6969 139.76 15 140.508 15C141.059 15 141.494 14.8496 141.813 14.5488C142.132 14.2526 142.292 13.8151 142.292 13.2363V12.7373C141.813 13.2705 141.175 13.5371 140.378 13.5371C139.512 13.5371 138.803 13.193 138.252 12.5049C137.705 11.8167 137.432 10.8643 137.432 9.64746ZM139.086 9.79102C139.086 10.5339 139.236 11.1195 139.537 11.5479C139.842 11.9717 140.264 12.1836 140.802 12.1836C141.472 12.1836 141.968 11.8965 142.292 11.3223V8.06836C141.978 7.50781 141.485 7.22754 140.815 7.22754C140.269 7.22754 139.842 7.44401 139.537 7.87695C139.236 8.3099 139.086 8.94792 139.086 9.79102ZM147.651 13.4004H145.99V2.90039H147.651V13.4004ZM152.942 13.5371C151.89 13.5371 151.035 13.2067 150.379 12.5459C149.727 11.8805 149.401 10.9964 149.401 9.89355V9.68848C149.401 8.9502 149.543 8.29167 149.825 7.71289C150.112 7.12956 150.513 6.67611 151.028 6.35254C151.543 6.02897 152.118 5.86719 152.751 5.86719C153.758 5.86719 154.535 6.18848 155.082 6.83105C155.633 7.47363 155.909 8.38281 155.909 9.55859V10.2285H151.076C151.126 10.8392 151.329 11.3223 151.685 11.6777C152.045 12.0332 152.496 12.2109 153.038 12.2109C153.799 12.2109 154.419 11.9033 154.897 11.2881L155.793 12.1426C155.497 12.5846 155.1 12.9287 154.604 13.1748C154.111 13.4163 153.558 13.5371 152.942 13.5371ZM152.744 7.2002C152.288 7.2002 151.919 7.3597 151.637 7.67871C151.359 7.99772 151.181 8.44206 151.104 9.01172H154.269V8.88867C154.232 8.33268 154.084 7.91341 153.824 7.63086C153.564 7.34375 153.204 7.2002 152.744 7.2002Z" fill="black" fill-opacity="0.54"/>
</g>
<defs>
<clipPath id="clip0">
<rect width="167" height="18" fill="white"/>
</clipPath>
</defs>
</svg>
